<?xml version="1.0" encoding="utf-8"?>
<!-- Generator: Adobe Illustrator 26.0.0, SVG Export Plug-In . SVG Version: 6.00 Build 0)  -->
<svg version="1.1" id="Слой_1" xmlns="http://www.w3.org/2000/svg" xmlns:xlink="http://www.w3.org/1999/xlink" x="0px" y="0px"
	 viewBox="0 0 512 512" style="enable-background:new 0 0 512 512;" xml:space="preserve">
<style type="text/css">
	.st0{fill:#007FFF;}
	.st1{fill:#FFFFFF;}
</style>
<g>
	<path class="st0" d="M342.6,475.9h-174c-73.5,0-133-59.5-133-133v-174c0-73.5,59.5-133,133-133h174c73.5,0,133,59.5,133,133v174
		C475.6,416.3,416,475.9,342.6,475.9z"/>
</g>
<path class="st1" d="M380.2,201.9c-3.7-3.8-8.8-5.9-14.2-5.9h-40v-10c0-38.7-31.3-70-70-70s-70,31.3-70,70v10h-40c-11,0-20,9-20,20
	v135c0,24.4,20.6,45,45,45h170c11.8,0,23.1-4.6,31.5-12.8c8.6-8.2,13.4-19.5,13.4-31.4V216C386,210.7,383.9,205.6,380.2,201.9z
	 M206,186c0-27.6,22.4-50,50-50s50,22.4,50,50v10H206V186z"/>
<g>
	<g>
		<path class="st0" d="M282,255.7H298l-12.5,43.7c-0.8,2.8-2.1,7.1-3.9,13c2.4,9.9,4.3,15.7,5.5,17.7c2.3,3.5,5.2,5.3,8.7,5.3
			c2.6,0,4.9-1.1,7.1-3.2c2.2-2.1,3.6-5.4,4.3-9.9h3.8c-0.9,9.2-2.8,15.6-5.8,19.1c-3,3.5-6.4,5.3-10.3,5.3c-3.6,0-7-1.5-9.9-4.6
			c-3-3.1-5.6-9.7-8-19.8c-2.8,5.6-5.6,9.8-8.3,12.7c-3.8,4-7.9,6.9-12.3,8.9c-4.4,2-9.4,2.9-15.1,2.9c-14.1,0-24.5-4.7-31.2-14.1
			c-6.7-9.4-10-20.1-10-32.1c0-14.1,3.9-25.5,11.7-34.2c7.8-8.7,17-13.1,27.4-13.1c7.3,0,13.7,2.2,19.3,6.7
			c5.6,4.4,10.6,12.7,15.2,24.8L282,255.7z M270.4,295.3c-3.5-13.2-7.9-22.4-13.3-27.6c-5.4-5.2-11-7.8-16.6-7.8
			c-6.3,0-11.5,3.4-15.6,10.3c-4.2,6.9-6.2,17.8-6.2,32.9c0,8.9,0.9,15.9,2.7,21c1.8,5.1,4.5,9,8.1,11.8c3.6,2.8,7.4,4.2,11.5,4.2
			c4.9,0,9.4-2.3,13.5-6.8C260,327.1,265.3,314.5,270.4,295.3z"/>
	</g>
</g>
</svg>
